<mxfile host="Electron" agent="Mozilla/5.0 (Macintosh; Intel Mac OS X 10_15_7) AppleWebKit/537.36 (KHTML, like Gecko) draw.io/26.0.16 Chrome/132.0.6834.196 Electron/34.2.0 Safari/537.36" version="26.0.16">
  <diagram name="Page-1" id="eKvm-nw8SV4DR7H7fsb8">
    <mxGraphModel dx="1999" dy="1820" grid="1" gridSize="10" guides="1" tooltips="1" connect="1" arrows="1" fold="1" page="1" pageScale="1" pageWidth="850" pageHeight="1100" math="0" shadow="0">
      <root>
        <mxCell id="0" />
        <mxCell id="1" parent="0" />
        <mxCell id="GrmrCbHe76L7C8_c3pLA-6" value=":ViewEventDetailsGUI" style="shape=umlLifeline;perimeter=lifelinePerimeter;whiteSpace=wrap;html=1;container=0;dropTarget=0;collapsible=0;recursiveResize=0;outlineConnect=0;portConstraint=eastwest;newEdgeStyle={&quot;curved&quot;:0,&quot;rounded&quot;:0};" parent="1" vertex="1">
          <mxGeometry x="80" y="50" width="120" height="2500" as="geometry" />
        </mxCell>
        <mxCell id="GrmrCbHe76L7C8_c3pLA-22" value="Review" style="html=1;verticalAlign=bottom;endArrow=open;dashed=1;endSize=8;curved=0;rounded=0;" parent="1" edge="1">
          <mxGeometry relative="1" as="geometry">
            <mxPoint x="1060" y="490" as="sourcePoint" />
            <mxPoint x="905" y="490" as="targetPoint" />
            <Array as="points" />
          </mxGeometry>
        </mxCell>
        <mxCell id="GrmrCbHe76L7C8_c3pLA-18" value="submitReview(review)" style="html=1;verticalAlign=bottom;endArrow=block;curved=0;rounded=0;" parent="1" target="GrmrCbHe76L7C8_c3pLA-19" edge="1">
          <mxGeometry width="80" relative="1" as="geometry">
            <mxPoint x="720" y="430" as="sourcePoint" />
            <mxPoint x="895" y="430" as="targetPoint" />
          </mxGeometry>
        </mxCell>
        <mxCell id="GrmrCbHe76L7C8_c3pLA-16" value="createReview()" style="html=1;verticalAlign=bottom;endArrow=block;curved=0;rounded=0;" parent="1" target="GrmrCbHe76L7C8_c3pLA-17" edge="1">
          <mxGeometry width="80" relative="1" as="geometry">
            <mxPoint x="308" y="400" as="sourcePoint" />
            <mxPoint x="543" y="400" as="targetPoint" />
          </mxGeometry>
        </mxCell>
        <mxCell id="GrmrCbHe76L7C8_c3pLA-13" value="submitReviewButton()" style="html=1;verticalAlign=bottom;endArrow=block;curved=0;rounded=0;" parent="1" target="GrmrCbHe76L7C8_c3pLA-9" edge="1">
          <mxGeometry width="80" relative="1" as="geometry">
            <mxPoint x="-40" y="250" as="sourcePoint" />
            <mxPoint x="300" y="250" as="targetPoint" />
          </mxGeometry>
        </mxCell>
        <mxCell id="GrmrCbHe76L7C8_c3pLA-12" value="enterTextOrMedia(text, images, videos)" style="html=1;verticalAlign=bottom;endArrow=block;curved=0;rounded=0;" parent="1" edge="1">
          <mxGeometry width="80" relative="1" as="geometry">
            <mxPoint x="-35" y="220" as="sourcePoint" />
            <mxPoint x="305" y="220" as="targetPoint" />
          </mxGeometry>
        </mxCell>
        <mxCell id="GrmrCbHe76L7C8_c3pLA-11" value="enterRating(rating)" style="html=1;verticalAlign=bottom;endArrow=block;curved=0;rounded=0;" parent="1" edge="1">
          <mxGeometry width="80" relative="1" as="geometry">
            <mxPoint x="-35" y="180" as="sourcePoint" />
            <mxPoint x="305" y="180" as="targetPoint" />
            <mxPoint as="offset" />
          </mxGeometry>
        </mxCell>
        <mxCell id="GrmrCbHe76L7C8_c3pLA-10" value="selectEvent(event)" style="html=1;verticalAlign=bottom;endArrow=block;curved=0;rounded=0;" parent="1" edge="1">
          <mxGeometry width="80" relative="1" as="geometry">
            <mxPoint x="-35" y="150.0000000000001" as="sourcePoint" />
            <mxPoint x="305.0000000000002" y="150.0000000000001" as="targetPoint" />
          </mxGeometry>
        </mxCell>
        <mxCell id="GrmrCbHe76L7C8_c3pLA-1" value=":User" style="shape=umlLifeline;perimeter=lifelinePerimeter;whiteSpace=wrap;html=1;container=1;dropTarget=0;collapsible=0;recursiveResize=0;outlineConnect=0;portConstraint=eastwest;newEdgeStyle={&quot;curved&quot;:0,&quot;rounded&quot;:0};" parent="1" vertex="1">
          <mxGeometry x="-90" y="50" width="100" height="2430" as="geometry" />
        </mxCell>
        <mxCell id="GrmrCbHe76L7C8_c3pLA-8" value="" style="html=1;points=[[0,0,0,0,5],[0,1,0,0,-5],[1,0,0,0,5],[1,1,0,0,-5]];perimeter=orthogonalPerimeter;outlineConnect=0;targetShapes=umlLifeline;portConstraint=eastwest;newEdgeStyle={&quot;curved&quot;:0,&quot;rounded&quot;:0};" parent="GrmrCbHe76L7C8_c3pLA-1" vertex="1">
          <mxGeometry x="45" y="70" width="10" height="500" as="geometry" />
        </mxCell>
        <mxCell id="GrmrCbHe76L7C8_c3pLA-71" value="" style="html=1;points=[[0,0,0,0,5],[0,1,0,0,-5],[1,0,0,0,5],[1,1,0,0,-5]];perimeter=orthogonalPerimeter;outlineConnect=0;targetShapes=umlLifeline;portConstraint=eastwest;newEdgeStyle={&quot;curved&quot;:0,&quot;rounded&quot;:0};" parent="GrmrCbHe76L7C8_c3pLA-1" vertex="1">
          <mxGeometry x="45" y="1820" width="10" height="360" as="geometry" />
        </mxCell>
        <mxCell id="GrmrCbHe76L7C8_c3pLA-2" value=":ReviewGUI" style="shape=umlLifeline;perimeter=lifelinePerimeter;whiteSpace=wrap;html=1;container=0;dropTarget=0;collapsible=0;recursiveResize=0;outlineConnect=0;portConstraint=eastwest;newEdgeStyle={&quot;curved&quot;:0,&quot;rounded&quot;:0};" parent="1" vertex="1">
          <mxGeometry x="257.5" y="50" width="105" height="2390" as="geometry" />
        </mxCell>
        <mxCell id="GrmrCbHe76L7C8_c3pLA-3" value=":ReviewController" style="shape=umlLifeline;perimeter=lifelinePerimeter;whiteSpace=wrap;html=1;container=1;dropTarget=0;collapsible=0;recursiveResize=0;outlineConnect=0;portConstraint=eastwest;newEdgeStyle={&quot;curved&quot;:0,&quot;rounded&quot;:0};" parent="1" vertex="1">
          <mxGeometry x="670" y="50" width="100" height="2420" as="geometry" />
        </mxCell>
        <mxCell id="GrmrCbHe76L7C8_c3pLA-17" value="" style="html=1;points=[[0,0,0,0,5],[0,1,0,0,-5],[1,0,0,0,5],[1,1,0,0,-5]];perimeter=orthogonalPerimeter;outlineConnect=0;targetShapes=umlLifeline;portConstraint=eastwest;newEdgeStyle={&quot;curved&quot;:0,&quot;rounded&quot;:0};" parent="GrmrCbHe76L7C8_c3pLA-3" vertex="1">
          <mxGeometry x="45" y="330" width="10" height="190" as="geometry" />
        </mxCell>
        <mxCell id="GrmrCbHe76L7C8_c3pLA-4" value=":ProxyDB" style="shape=umlLifeline;perimeter=lifelinePerimeter;whiteSpace=wrap;html=1;container=1;dropTarget=0;collapsible=0;recursiveResize=0;outlineConnect=0;portConstraint=eastwest;newEdgeStyle={&quot;curved&quot;:0,&quot;rounded&quot;:0};" parent="1" vertex="1">
          <mxGeometry x="850" y="50" width="105" height="2470" as="geometry" />
        </mxCell>
        <mxCell id="GrmrCbHe76L7C8_c3pLA-19" value="" style="html=1;points=[[0,0,0,0,5],[0,1,0,0,-5],[1,0,0,0,5],[1,1,0,0,-5]];perimeter=orthogonalPerimeter;outlineConnect=0;targetShapes=umlLifeline;portConstraint=eastwest;newEdgeStyle={&quot;curved&quot;:0,&quot;rounded&quot;:0};" parent="GrmrCbHe76L7C8_c3pLA-4" vertex="1">
          <mxGeometry x="48" y="350" width="10" height="140" as="geometry" />
        </mxCell>
        <mxCell id="GrmrCbHe76L7C8_c3pLA-49" value="" style="html=1;points=[[0,0,0,0,5],[0,1,0,0,-5],[1,0,0,0,5],[1,1,0,0,-5]];perimeter=orthogonalPerimeter;outlineConnect=0;targetShapes=umlLifeline;portConstraint=eastwest;newEdgeStyle={&quot;curved&quot;:0,&quot;rounded&quot;:0};" parent="GrmrCbHe76L7C8_c3pLA-4" vertex="1">
          <mxGeometry x="47.5" y="1300" width="10" height="40" as="geometry" />
        </mxCell>
        <mxCell id="GrmrCbHe76L7C8_c3pLA-5" value=":Review" style="shape=umlLifeline;perimeter=lifelinePerimeter;whiteSpace=wrap;html=1;container=1;dropTarget=0;collapsible=0;recursiveResize=0;outlineConnect=0;portConstraint=eastwest;newEdgeStyle={&quot;curved&quot;:0,&quot;rounded&quot;:0};" parent="1" vertex="1">
          <mxGeometry x="1010" y="50" width="100" height="2880" as="geometry" />
        </mxCell>
        <mxCell id="GrmrCbHe76L7C8_c3pLA-20" value="" style="html=1;points=[[0,0,0,0,5],[0,1,0,0,-5],[1,0,0,0,5],[1,1,0,0,-5]];perimeter=orthogonalPerimeter;outlineConnect=0;targetShapes=umlLifeline;portConstraint=eastwest;newEdgeStyle={&quot;curved&quot;:0,&quot;rounded&quot;:0};" parent="GrmrCbHe76L7C8_c3pLA-5" vertex="1">
          <mxGeometry x="45" y="380" width="10" height="80" as="geometry" />
        </mxCell>
        <mxCell id="GrmrCbHe76L7C8_c3pLA-21" value="create()" style="html=1;verticalAlign=bottom;endArrow=block;curved=0;rounded=0;" parent="1" source="GrmrCbHe76L7C8_c3pLA-19" edge="1">
          <mxGeometry width="80" relative="1" as="geometry">
            <mxPoint x="930" y="450" as="sourcePoint" />
            <mxPoint x="1055" y="450" as="targetPoint" />
            <Array as="points">
              <mxPoint x="950" y="450" />
            </Array>
          </mxGeometry>
        </mxCell>
        <mxCell id="GrmrCbHe76L7C8_c3pLA-23" value="[Review]" style="html=1;verticalAlign=bottom;endArrow=open;dashed=1;endSize=8;curved=0;rounded=0;" parent="1" edge="1">
          <mxGeometry x="0.0053" relative="1" as="geometry">
            <mxPoint x="895" y="530" as="sourcePoint" />
            <mxPoint x="724.9999999999998" y="530" as="targetPoint" />
            <Array as="points" />
            <mxPoint as="offset" />
          </mxGeometry>
        </mxCell>
        <mxCell id="GrmrCbHe76L7C8_c3pLA-25" value="update()" style="html=1;verticalAlign=bottom;endArrow=block;curved=0;rounded=0;" parent="1" source="GrmrCbHe76L7C8_c3pLA-17" edge="1">
          <mxGeometry x="-0.001" width="80" relative="1" as="geometry">
            <mxPoint x="700" y="550" as="sourcePoint" />
            <mxPoint x="145" y="550" as="targetPoint" />
            <mxPoint as="offset" />
          </mxGeometry>
        </mxCell>
        <mxCell id="GrmrCbHe76L7C8_c3pLA-9" value="" style="html=1;points=[[0,0,0,0,5],[0,1,0,0,-5],[1,0,0,0,5],[1,1,0,0,-5]];perimeter=orthogonalPerimeter;outlineConnect=0;targetShapes=umlLifeline;portConstraint=eastwest;newEdgeStyle={&quot;curved&quot;:0,&quot;rounded&quot;:0};" parent="1" vertex="1">
          <mxGeometry x="305" y="120" width="10" height="310" as="geometry" />
        </mxCell>
        <mxCell id="GrmrCbHe76L7C8_c3pLA-14" value="" style="html=1;points=[[0,0,0,0,5],[0,1,0,0,-5],[1,0,0,0,5],[1,1,0,0,-5]];perimeter=orthogonalPerimeter;outlineConnect=0;targetShapes=umlLifeline;portConstraint=eastwest;newEdgeStyle={&quot;curved&quot;:0,&quot;rounded&quot;:0};" parent="1" vertex="1">
          <mxGeometry x="310" y="320" width="10" height="40" as="geometry" />
        </mxCell>
        <mxCell id="GrmrCbHe76L7C8_c3pLA-15" value="validateReviewData()" style="html=1;align=left;spacingLeft=2;endArrow=block;rounded=0;edgeStyle=orthogonalEdgeStyle;curved=0;rounded=0;" parent="1" target="GrmrCbHe76L7C8_c3pLA-14" edge="1">
          <mxGeometry relative="1" as="geometry">
            <mxPoint x="315" y="300" as="sourcePoint" />
            <Array as="points">
              <mxPoint x="345" y="330" />
            </Array>
            <mxPoint as="offset" />
          </mxGeometry>
        </mxCell>
        <mxCell id="GrmrCbHe76L7C8_c3pLA-30" value="editReview(review)" style="html=1;verticalAlign=bottom;endArrow=block;curved=0;rounded=0;" parent="1" target="GrmrCbHe76L7C8_c3pLA-31" edge="1">
          <mxGeometry width="80" relative="1" as="geometry">
            <mxPoint x="310" y="880" as="sourcePoint" />
            <mxPoint x="497" y="880" as="targetPoint" />
          </mxGeometry>
        </mxCell>
        <mxCell id="GrmrCbHe76L7C8_c3pLA-26" value="" style="html=1;points=[[0,0,0,0,5],[0,1,0,0,-5],[1,0,0,0,5],[1,1,0,0,-5]];perimeter=orthogonalPerimeter;outlineConnect=0;targetShapes=umlLifeline;portConstraint=eastwest;newEdgeStyle={&quot;curved&quot;:0,&quot;rounded&quot;:0};" parent="1" vertex="1">
          <mxGeometry x="-45" y="740" width="10" height="340" as="geometry" />
        </mxCell>
        <mxCell id="GrmrCbHe76L7C8_c3pLA-27" value="" style="html=1;points=[[0,0,0,0,5],[0,1,0,0,-5],[1,0,0,0,5],[1,1,0,0,-5]];perimeter=orthogonalPerimeter;outlineConnect=0;targetShapes=umlLifeline;portConstraint=eastwest;newEdgeStyle={&quot;curved&quot;:0,&quot;rounded&quot;:0};" parent="1" vertex="1">
          <mxGeometry x="305" y="760" width="10" height="160" as="geometry" />
        </mxCell>
        <mxCell id="GrmrCbHe76L7C8_c3pLA-28" value="navigateToReview()" style="html=1;verticalAlign=bottom;endArrow=block;curved=0;rounded=0;" parent="1" edge="1">
          <mxGeometry width="80" relative="1" as="geometry">
            <mxPoint x="-35" y="790.0000000000001" as="sourcePoint" />
            <mxPoint x="305.0000000000002" y="790.0000000000001" as="targetPoint" />
          </mxGeometry>
        </mxCell>
        <mxCell id="GrmrCbHe76L7C8_c3pLA-39" value="update()" style="html=1;verticalAlign=bottom;endArrow=block;curved=0;rounded=0;" parent="1" source="GrmrCbHe76L7C8_c3pLA-31" edge="1">
          <mxGeometry width="80" relative="1" as="geometry">
            <mxPoint x="494.9999999999998" y="1020" as="sourcePoint" />
            <mxPoint x="145" y="1020" as="targetPoint" />
          </mxGeometry>
        </mxCell>
        <mxCell id="GrmrCbHe76L7C8_c3pLA-38" value="" style="html=1;points=[[0,0,0,0,5],[0,1,0,0,-5],[1,0,0,0,5],[1,1,0,0,-5]];perimeter=orthogonalPerimeter;outlineConnect=0;targetShapes=umlLifeline;portConstraint=eastwest;newEdgeStyle={&quot;curved&quot;:0,&quot;rounded&quot;:0};" parent="1" vertex="1">
          <mxGeometry x="135" y="1000" width="10" height="80" as="geometry" />
        </mxCell>
        <mxCell id="GrmrCbHe76L7C8_c3pLA-31" value="" style="html=1;points=[[0,0,0,0,5],[0,1,0,0,-5],[1,0,0,0,5],[1,1,0,0,-5]];perimeter=orthogonalPerimeter;outlineConnect=0;targetShapes=umlLifeline;portConstraint=eastwest;newEdgeStyle={&quot;curved&quot;:0,&quot;rounded&quot;:0};" parent="1" vertex="1">
          <mxGeometry x="715" y="850" width="10" height="190" as="geometry" />
        </mxCell>
        <mxCell id="GrmrCbHe76L7C8_c3pLA-37" value="" style="html=1;points=[[0,0,0,0,5],[0,1,0,0,-5],[1,0,0,0,5],[1,1,0,0,-5]];perimeter=orthogonalPerimeter;outlineConnect=0;targetShapes=umlLifeline;portConstraint=eastwest;newEdgeStyle={&quot;curved&quot;:0,&quot;rounded&quot;:0};" parent="1" vertex="1">
          <mxGeometry x="1055" y="910" width="10" height="80" as="geometry" />
        </mxCell>
        <mxCell id="GrmrCbHe76L7C8_c3pLA-29" value="editReviewButton(newText, newMedia, newRating)" style="html=1;verticalAlign=bottom;endArrow=block;curved=0;rounded=0;" parent="1" edge="1">
          <mxGeometry width="80" relative="1" as="geometry">
            <mxPoint x="-35" y="830" as="sourcePoint" />
            <mxPoint x="305" y="830" as="targetPoint" />
            <mxPoint as="offset" />
          </mxGeometry>
        </mxCell>
        <mxCell id="GrmrCbHe76L7C8_c3pLA-32" value="" style="html=1;points=[[0,0,0,0,5],[0,1,0,0,-5],[1,0,0,0,5],[1,1,0,0,-5]];perimeter=orthogonalPerimeter;outlineConnect=0;targetShapes=umlLifeline;portConstraint=eastwest;newEdgeStyle={&quot;curved&quot;:0,&quot;rounded&quot;:0};" parent="1" vertex="1">
          <mxGeometry x="898" y="880" width="10" height="140" as="geometry" />
        </mxCell>
        <mxCell id="GrmrCbHe76L7C8_c3pLA-33" value="editReview(review)" style="html=1;verticalAlign=bottom;endArrow=block;curved=0;rounded=0;" parent="1" source="GrmrCbHe76L7C8_c3pLA-31" edge="1">
          <mxGeometry x="0.0065" width="80" relative="1" as="geometry">
            <mxPoint x="723" y="910" as="sourcePoint" />
            <mxPoint x="898" y="910" as="targetPoint" />
            <mxPoint as="offset" />
          </mxGeometry>
        </mxCell>
        <mxCell id="GrmrCbHe76L7C8_c3pLA-34" value="[Review]" style="html=1;verticalAlign=bottom;endArrow=open;dashed=1;endSize=8;curved=0;rounded=0;" parent="1" edge="1">
          <mxGeometry x="0.0053" relative="1" as="geometry">
            <mxPoint x="898" y="1000" as="sourcePoint" />
            <mxPoint x="725" y="1000" as="targetPoint" />
            <Array as="points" />
            <mxPoint as="offset" />
          </mxGeometry>
        </mxCell>
        <mxCell id="GrmrCbHe76L7C8_c3pLA-35" value="Review" style="html=1;verticalAlign=bottom;endArrow=open;dashed=1;endSize=8;curved=0;rounded=0;" parent="1" source="GrmrCbHe76L7C8_c3pLA-37" edge="1">
          <mxGeometry relative="1" as="geometry">
            <mxPoint x="1040" y="970" as="sourcePoint" />
            <mxPoint x="908" y="970" as="targetPoint" />
            <Array as="points" />
          </mxGeometry>
        </mxCell>
        <mxCell id="GrmrCbHe76L7C8_c3pLA-36" value="create()" style="html=1;verticalAlign=bottom;endArrow=block;curved=0;rounded=0;" parent="1" target="GrmrCbHe76L7C8_c3pLA-37" edge="1">
          <mxGeometry x="0.0027" width="80" relative="1" as="geometry">
            <mxPoint x="908" y="930" as="sourcePoint" />
            <mxPoint x="1030" y="930" as="targetPoint" />
            <Array as="points">
              <mxPoint x="953" y="930" />
            </Array>
            <mxPoint as="offset" />
          </mxGeometry>
        </mxCell>
        <mxCell id="GrmrCbHe76L7C8_c3pLA-40" value="pushDialog(message)" style="html=1;verticalAlign=bottom;endArrow=block;curved=0;rounded=0;" parent="1" target="GrmrCbHe76L7C8_c3pLA-55" edge="1">
          <mxGeometry width="80" relative="1" as="geometry">
            <mxPoint x="309" y="1340" as="sourcePoint" />
            <mxPoint x="496" y="1340" as="targetPoint" />
          </mxGeometry>
        </mxCell>
        <mxCell id="GrmrCbHe76L7C8_c3pLA-41" value="" style="html=1;points=[[0,0,0,0,5],[0,1,0,0,-5],[1,0,0,0,5],[1,1,0,0,-5]];perimeter=orthogonalPerimeter;outlineConnect=0;targetShapes=umlLifeline;portConstraint=eastwest;newEdgeStyle={&quot;curved&quot;:0,&quot;rounded&quot;:0};" parent="1" vertex="1">
          <mxGeometry x="-46" y="1200" width="10" height="430" as="geometry" />
        </mxCell>
        <mxCell id="GrmrCbHe76L7C8_c3pLA-42" value="" style="html=1;points=[[0,0,0,0,5],[0,1,0,0,-5],[1,0,0,0,5],[1,1,0,0,-5]];perimeter=orthogonalPerimeter;outlineConnect=0;targetShapes=umlLifeline;portConstraint=eastwest;newEdgeStyle={&quot;curved&quot;:0,&quot;rounded&quot;:0};" parent="1" vertex="1">
          <mxGeometry x="304" y="1220" width="10" height="260" as="geometry" />
        </mxCell>
        <mxCell id="GrmrCbHe76L7C8_c3pLA-43" value="navigateToReview()" style="html=1;verticalAlign=bottom;endArrow=block;curved=0;rounded=0;" parent="1" edge="1">
          <mxGeometry width="80" relative="1" as="geometry">
            <mxPoint x="-36" y="1250" as="sourcePoint" />
            <mxPoint x="304.0000000000002" y="1250" as="targetPoint" />
          </mxGeometry>
        </mxCell>
        <mxCell id="GrmrCbHe76L7C8_c3pLA-46" value="" style="html=1;points=[[0,0,0,0,5],[0,1,0,0,-5],[1,0,0,0,5],[1,1,0,0,-5]];perimeter=orthogonalPerimeter;outlineConnect=0;targetShapes=umlLifeline;portConstraint=eastwest;newEdgeStyle={&quot;curved&quot;:0,&quot;rounded&quot;:0};" parent="1" vertex="1">
          <mxGeometry x="714" y="1310" width="10" height="290" as="geometry" />
        </mxCell>
        <mxCell id="GrmrCbHe76L7C8_c3pLA-48" value="clickDeleteButton()" style="html=1;verticalAlign=bottom;endArrow=block;curved=0;rounded=0;" parent="1" edge="1">
          <mxGeometry width="80" relative="1" as="geometry">
            <mxPoint x="-36" y="1290" as="sourcePoint" />
            <mxPoint x="304" y="1290" as="targetPoint" />
            <mxPoint as="offset" />
          </mxGeometry>
        </mxCell>
        <mxCell id="GrmrCbHe76L7C8_c3pLA-50" value="deleteReview(reviewId)" style="html=1;verticalAlign=bottom;endArrow=block;curved=0;rounded=0;" parent="1" source="GrmrCbHe76L7C8_c3pLA-46" edge="1">
          <mxGeometry width="80" relative="1" as="geometry">
            <mxPoint x="722" y="1370" as="sourcePoint" />
            <mxPoint x="897" y="1370" as="targetPoint" />
          </mxGeometry>
        </mxCell>
        <mxCell id="GrmrCbHe76L7C8_c3pLA-54" value=":PopUpMessageGUI" style="shape=umlLifeline;perimeter=lifelinePerimeter;whiteSpace=wrap;html=1;container=1;dropTarget=0;collapsible=0;recursiveResize=0;outlineConnect=0;portConstraint=eastwest;newEdgeStyle={&quot;curved&quot;:0,&quot;rounded&quot;:0};" parent="1" vertex="1">
          <mxGeometry x="470" y="50" width="130" height="2440" as="geometry" />
        </mxCell>
        <mxCell id="GrmrCbHe76L7C8_c3pLA-55" value="" style="html=1;points=[[0,0,0,0,5],[0,1,0,0,-5],[1,0,0,0,5],[1,1,0,0,-5]];perimeter=orthogonalPerimeter;outlineConnect=0;targetShapes=umlLifeline;portConstraint=eastwest;newEdgeStyle={&quot;curved&quot;:0,&quot;rounded&quot;:0};" parent="GrmrCbHe76L7C8_c3pLA-54" vertex="1">
          <mxGeometry x="60" y="1270" width="10" height="170" as="geometry" />
        </mxCell>
        <mxCell id="GrmrCbHe76L7C8_c3pLA-82" value="" style="html=1;points=[[0,0,0,0,5],[0,1,0,0,-5],[1,0,0,0,5],[1,1,0,0,-5]];perimeter=orthogonalPerimeter;outlineConnect=0;targetShapes=umlLifeline;portConstraint=eastwest;newEdgeStyle={&quot;curved&quot;:0,&quot;rounded&quot;:0};" parent="GrmrCbHe76L7C8_c3pLA-54" vertex="1">
          <mxGeometry x="60" y="2090" width="10" height="70" as="geometry" />
        </mxCell>
        <mxCell id="GrmrCbHe76L7C8_c3pLA-56" value="alt" style="shape=umlFrame;whiteSpace=wrap;html=1;pointerEvents=0;" parent="1" vertex="1">
          <mxGeometry x="375" y="1270" width="315" height="240" as="geometry" />
        </mxCell>
        <mxCell id="GrmrCbHe76L7C8_c3pLA-57" value="deleteReview(id)" style="html=1;verticalAlign=bottom;endArrow=block;curved=0;rounded=0;" parent="1" target="GrmrCbHe76L7C8_c3pLA-46" edge="1">
          <mxGeometry width="80" relative="1" as="geometry">
            <mxPoint x="540" y="1360" as="sourcePoint" />
            <mxPoint x="710" y="1360" as="targetPoint" />
          </mxGeometry>
        </mxCell>
        <mxCell id="GrmrCbHe76L7C8_c3pLA-58" value="Confirm Deletion" style="text;html=1;align=center;verticalAlign=middle;resizable=0;points=[];autosize=1;strokeColor=none;fillColor=none;" parent="1" vertex="1">
          <mxGeometry x="560" y="1270" width="110" height="30" as="geometry" />
        </mxCell>
        <mxCell id="GrmrCbHe76L7C8_c3pLA-59" value="" style="endArrow=none;dashed=1;html=1;dashPattern=1 3;strokeWidth=2;rounded=0;exitX=-0.001;exitY=0.582;exitDx=0;exitDy=0;exitPerimeter=0;entryX=0.999;entryY=0.586;entryDx=0;entryDy=0;entryPerimeter=0;" parent="1" source="GrmrCbHe76L7C8_c3pLA-56" target="GrmrCbHe76L7C8_c3pLA-56" edge="1">
          <mxGeometry width="50" height="50" relative="1" as="geometry">
            <mxPoint x="510" y="1430" as="sourcePoint" />
            <mxPoint x="560" y="1380" as="targetPoint" />
          </mxGeometry>
        </mxCell>
        <mxCell id="GrmrCbHe76L7C8_c3pLA-60" value="Cancel Deletion" style="text;html=1;align=center;verticalAlign=middle;resizable=0;points=[];autosize=1;strokeColor=none;fillColor=none;" parent="1" vertex="1">
          <mxGeometry x="560" y="1418" width="110" height="30" as="geometry" />
        </mxCell>
        <mxCell id="GrmrCbHe76L7C8_c3pLA-61" value="" style="html=1;verticalAlign=bottom;endArrow=block;curved=0;rounded=0;" parent="1" edge="1">
          <mxGeometry width="80" relative="1" as="geometry">
            <mxPoint x="530.9999999999998" y="1454.57" as="sourcePoint" />
            <mxPoint x="315.0000000000002" y="1454.57" as="targetPoint" />
          </mxGeometry>
        </mxCell>
        <mxCell id="GrmrCbHe76L7C8_c3pLA-62" value="popDialog()" style="edgeLabel;html=1;align=center;verticalAlign=middle;resizable=0;points=[];" parent="GrmrCbHe76L7C8_c3pLA-61" vertex="1" connectable="0">
          <mxGeometry x="0.0556" y="-1" relative="1" as="geometry">
            <mxPoint y="-6" as="offset" />
          </mxGeometry>
        </mxCell>
        <mxCell id="GrmrCbHe76L7C8_c3pLA-68" value="createReviewButton(review)" style="html=1;verticalAlign=bottom;endArrow=block;curved=0;rounded=0;" parent="1" edge="1">
          <mxGeometry width="80" relative="1" as="geometry">
            <mxPoint x="-35" y="1930" as="sourcePoint" />
            <mxPoint x="305" y="1930" as="targetPoint" />
          </mxGeometry>
        </mxCell>
        <mxCell id="GrmrCbHe76L7C8_c3pLA-67" value="submitReviewButton()" style="html=1;verticalAlign=bottom;endArrow=block;curved=0;rounded=0;" parent="1" edge="1">
          <mxGeometry width="80" relative="1" as="geometry">
            <mxPoint x="-36" y="1960" as="sourcePoint" />
            <mxPoint x="304" y="1960" as="targetPoint" />
          </mxGeometry>
        </mxCell>
        <mxCell id="GrmrCbHe76L7C8_c3pLA-70" value="selectEvent(event)" style="html=1;verticalAlign=bottom;endArrow=block;curved=0;rounded=0;" parent="1" edge="1">
          <mxGeometry width="80" relative="1" as="geometry">
            <mxPoint x="-35" y="1900" as="sourcePoint" />
            <mxPoint x="305.0000000000002" y="1900" as="targetPoint" />
          </mxGeometry>
        </mxCell>
        <mxCell id="GrmrCbHe76L7C8_c3pLA-78" value="" style="html=1;points=[[0,0,0,0,5],[0,1,0,0,-5],[1,0,0,0,5],[1,1,0,0,-5]];perimeter=orthogonalPerimeter;outlineConnect=0;targetShapes=umlLifeline;portConstraint=eastwest;newEdgeStyle={&quot;curved&quot;:0,&quot;rounded&quot;:0};" parent="1" vertex="1">
          <mxGeometry x="305" y="1870" width="10" height="310" as="geometry" />
        </mxCell>
        <mxCell id="GrmrCbHe76L7C8_c3pLA-79" value="" style="html=1;points=[[0,0,0,0,5],[0,1,0,0,-5],[1,0,0,0,5],[1,1,0,0,-5]];perimeter=orthogonalPerimeter;outlineConnect=0;targetShapes=umlLifeline;portConstraint=eastwest;newEdgeStyle={&quot;curved&quot;:0,&quot;rounded&quot;:0};" parent="1" vertex="1">
          <mxGeometry x="310" y="2070" width="10" height="40" as="geometry" />
        </mxCell>
        <mxCell id="GrmrCbHe76L7C8_c3pLA-80" value="validateReviewData()" style="html=1;align=left;spacingLeft=2;endArrow=block;rounded=0;edgeStyle=orthogonalEdgeStyle;curved=0;rounded=0;" parent="1" target="GrmrCbHe76L7C8_c3pLA-79" edge="1">
          <mxGeometry relative="1" as="geometry">
            <mxPoint x="315" y="2050" as="sourcePoint" />
            <Array as="points">
              <mxPoint x="345" y="2080" />
            </Array>
          </mxGeometry>
        </mxCell>
        <mxCell id="GrmrCbHe76L7C8_c3pLA-81" value="pushDialog()" style="html=1;verticalAlign=bottom;endArrow=block;curved=0;rounded=0;" parent="1" edge="1">
          <mxGeometry x="0.0026" width="80" relative="1" as="geometry">
            <mxPoint x="315" y="2160" as="sourcePoint" />
            <mxPoint x="530" y="2160" as="targetPoint" />
            <mxPoint as="offset" />
          </mxGeometry>
        </mxCell>
        <mxCell id="GrmrCbHe76L7C8_c3pLA-83" value="alt" style="shape=umlFrame;whiteSpace=wrap;html=1;pointerEvents=0;" parent="1" vertex="1">
          <mxGeometry x="-110" y="-30" width="1290" height="2350" as="geometry" />
        </mxCell>
        <mxCell id="GrmrCbHe76L7C8_c3pLA-24" value="" style="html=1;points=[[0,0,0,0,5],[0,1,0,0,-5],[1,0,0,0,5],[1,1,0,0,-5]];perimeter=orthogonalPerimeter;outlineConnect=0;targetShapes=umlLifeline;portConstraint=eastwest;newEdgeStyle={&quot;curved&quot;:0,&quot;rounded&quot;:0};" parent="1" vertex="1">
          <mxGeometry x="135" y="530" width="10" height="80" as="geometry" />
        </mxCell>
        <mxCell id="RJMUhrtjpvygO65RUndy-1" value="[Successfully submitting a review]" style="text;html=1;align=center;verticalAlign=middle;resizable=0;points=[];autosize=1;strokeColor=none;fillColor=none;" vertex="1" parent="1">
          <mxGeometry x="-10" y="-20" width="200" height="30" as="geometry" />
        </mxCell>
        <mxCell id="RJMUhrtjpvygO65RUndy-4" value="" style="endArrow=none;dashed=1;html=1;rounded=0;exitX=-0.001;exitY=0.302;exitDx=0;exitDy=0;exitPerimeter=0;entryX=1;entryY=0.302;entryDx=0;entryDy=0;entryPerimeter=0;" edge="1" parent="1" source="GrmrCbHe76L7C8_c3pLA-83" target="GrmrCbHe76L7C8_c3pLA-83">
          <mxGeometry width="50" height="50" relative="1" as="geometry">
            <mxPoint x="350" y="670" as="sourcePoint" />
            <mxPoint x="400" y="620" as="targetPoint" />
          </mxGeometry>
        </mxCell>
        <mxCell id="RJMUhrtjpvygO65RUndy-5" value="[Editing a submitted review]" style="text;html=1;align=center;verticalAlign=middle;resizable=0;points=[];autosize=1;strokeColor=none;fillColor=none;" vertex="1" parent="1">
          <mxGeometry x="35" y="690" width="170" height="30" as="geometry" />
        </mxCell>
        <mxCell id="RJMUhrtjpvygO65RUndy-6" value="[Deleting a submitted review]" style="text;html=1;align=center;verticalAlign=middle;resizable=0;points=[];autosize=1;strokeColor=none;fillColor=none;" vertex="1" parent="1">
          <mxGeometry x="-5" y="1130" width="180" height="30" as="geometry" />
        </mxCell>
        <mxCell id="RJMUhrtjpvygO65RUndy-7" value="" style="endArrow=none;dashed=1;html=1;rounded=0;exitX=-0.001;exitY=0.49;exitDx=0;exitDy=0;exitPerimeter=0;entryX=1.002;entryY=0.49;entryDx=0;entryDy=0;entryPerimeter=0;" edge="1" parent="1" source="GrmrCbHe76L7C8_c3pLA-83" target="GrmrCbHe76L7C8_c3pLA-83">
          <mxGeometry width="50" height="50" relative="1" as="geometry">
            <mxPoint x="290" y="1140" as="sourcePoint" />
            <mxPoint x="340" y="1090" as="targetPoint" />
          </mxGeometry>
        </mxCell>
        <mxCell id="RJMUhrtjpvygO65RUndy-8" value="" style="endArrow=none;dashed=1;html=1;rounded=0;exitX=-0.001;exitY=0.761;exitDx=0;exitDy=0;exitPerimeter=0;entryX=0.999;entryY=0.762;entryDx=0;entryDy=0;entryPerimeter=0;" edge="1" parent="1" source="GrmrCbHe76L7C8_c3pLA-83" target="GrmrCbHe76L7C8_c3pLA-83">
          <mxGeometry width="50" height="50" relative="1" as="geometry">
            <mxPoint x="360" y="1830" as="sourcePoint" />
            <mxPoint x="410" y="1780" as="targetPoint" />
          </mxGeometry>
        </mxCell>
        <mxCell id="RJMUhrtjpvygO65RUndy-9" value="[Submitting a review without a rating]" style="text;html=1;align=center;verticalAlign=middle;resizable=0;points=[];autosize=1;strokeColor=none;fillColor=none;" vertex="1" parent="1">
          <mxGeometry x="-30" y="1778" width="220" height="30" as="geometry" />
        </mxCell>
      </root>
    </mxGraphModel>
  </diagram>
</mxfile>
